<svg width="525" height="526" viewBox="0 0 525 526" fill="none" xmlns="http://www.w3.org/2000/svg">
<path fill-rule="evenodd" clip-rule="evenodd" d="M256.867 0.513672L479.187 128.514V384.514L256.867 512.514L34.5469 384.514V128.514L256.867 0.513672ZM455.187 142.332L256.867 28.1495L58.5469 142.332V370.696L256.867 484.878L455.187 370.696V142.332Z" fill="white"/>
<path fill-rule="evenodd" clip-rule="evenodd" d="M256.867 484.879V370.697V256.515L157.707 199.423L58.5469 142.332V256.515V370.697L256.867 484.879Z" fill="white"/>
<path d="M356.027 427.788L455.187 370.697L356.027 313.606L256.867 370.697V484.879L356.027 427.788Z" fill="#87E0E1"/>
<path d="M256.867 256.515V370.697L356.027 313.606L256.867 256.515Z" fill="#1B46DD"/>
<path d="M356.027 199.423L256.867 256.515L356.027 313.606L455.187 256.515L356.027 199.423Z" fill="#B068E9"/>
<path d="M356.027 85.2414L256.867 28.1504L157.707 85.2414L58.5469 142.332L157.707 199.423L256.867 142.332L356.027 199.423L455.187 142.332L356.027 85.2414Z" fill="#F9DB4E"/>
<path d="M256.867 256.515L356.027 199.423L256.867 142.332L157.707 199.423L256.867 256.515Z" fill="#E94A5D"/>
</svg>
